<svg id="Layer_1" data-name="Layer 1" xmlns="http://www.w3.org/2000/svg" viewBox="0 0 363.3 109.2"><defs><style>.cls-1,.cls-2{fill:#fff;}.cls-2{fill-rule:evenodd;}</style></defs><title>logo-white</title><path class="cls-1" d="M231.8,41.5c-34.3,21.4-55.4,43.2-50.1,54,3.6,7.3,18.2,8.3,38.8,4-29.9,9-52.4,10-56.9.8-6-12.4,22.2-39,65.4-63l2.8,4.2Z" transform="translate(-6.1 -2.3)"/><path class="cls-1" d="M233.9,32.8s-1-5,.8-7.2a11.8,11.8,0,0,1,4.3-3.5c2.1-1.2,3.6-1.2,5.7-2.3a35.7,35.7,0,0,0,4.5-2.8,9.2,9.2,0,0,0-1.6,4.2c0,1.8.1,4.2-.8,5.9s-1.8,3.5-1.8,3.5a15.9,15.9,0,0,0-3.2-.5,11.9,11.9,0,0,0-4.9,1,23.3,23.3,0,0,0-3,1.7Z" transform="translate(-6.1 -2.3)"/><path class="cls-2" d="M250.6,26.7a32.8,32.8,0,0,0,3.5-1,32.4,32.4,0,0,1,4-1.4,16,16,0,0,1,2.9-.1,11.4,11.4,0,0,0,2.3-3.8c.5-2.1.4-2.5.8-4.9a13,13,0,0,1,1.6-4.4,38.9,38.9,0,0,1-3.5,2.6c-1.3.7-5.5,1.5-8.6,3.9a8,8,0,0,0-3.3,5.4,13.6,13.6,0,0,0,.3,3.7Z" transform="translate(-6.1 -2.3)"/><path class="cls-2" d="M266.8,21.9s-.6-4.4.6-6.7,2.8-3,5.1-4,4.1-1.1,5-1.6,2.4-1.3,2.7-2-.9,2.8-1.4,4.4-.6,4.4-2.8,6.8c-.6.8-2.7.5-4.4,1a39.8,39.8,0,0,0-4.8,2.1Z" transform="translate(-6.1 -2.3)"/><path class="cls-2" d="M282.1,18a14.3,14.3,0,0,1-.6-4.9,8.1,8.1,0,0,1,2.9-4.8c2.2-2.2,4-1.8,7.1-3.2a20.3,20.3,0,0,0,3.8-2.8c-.2-.1-1.3,3.4-1.6,4.9s-.7,5.9-1.5,6.4-3.6.7-5.7,1.6a40.2,40.2,0,0,0-4.4,2.8Z" transform="translate(-6.1 -2.3)"/><path class="cls-1" d="M309.4,11.6s4.8-4.1,8.5-4.9,10,1.4,10,1.4-5.4,6.3-10.1,6.5-8.4-3-8.4-3Z" transform="translate(-6.1 -2.3)"/><path class="cls-1" d="M312.5,4.3c-2.6,2.2-6.7-.1-11,1.7-2.4.9-2.8,1.1-4.2,2.5a8.5,8.5,0,0,0-2.3,3.6c-.3,1.8-.1,2.6.4,3s2.4.5,4.2,1.9,3,2.6,4.7,3.1a11.1,11.1,0,0,0,5.1.2c1.8-.4,3.7-1.9,6-.9.5.2-2.3-3.4-4.5-4.8a21.7,21.7,0,0,0-5.6-1.9,10.6,10.6,0,0,0,2.3-2.3l2-3.1a28.9,28.9,0,0,1,2.9-3Z" transform="translate(-6.1 -2.3)"/><path class="cls-2" d="M233.1,36.1c.5-2.5,3.2-3.4,5.1-4a12.7,12.7,0,0,1,7.2.2,10.5,10.5,0,0,1,5.9,4.3,31.8,31.8,0,0,1,2.2,4.6s-.8-1.4-3.7-1.6-4.4,2.1-7.8,2.5-6.7-.4-7.9-1.8a4.7,4.7,0,0,1-1-4.2Z" transform="translate(-6.1 -2.3)"/><path class="cls-2" d="M248.7,31a19.9,19.9,0,0,1,3.4-3c3-1.9,5.4-2.5,8.8-1.8a12.2,12.2,0,0,1,6.3,3,43.6,43.6,0,0,1,3.2,3.6,3,3,0,0,0-3.1-1c-2.3.4-2.7,2.3-5.3,3.7a15.5,15.5,0,0,1-7.1,1.5c-1.5-.3-1-1.6-2.6-3s-2.7-1.4-3.3-1.8-.3-1.2-.3-1.2Z" transform="translate(-6.1 -2.3)"/><path class="cls-1" d="M265.7,25.6a22.1,22.1,0,0,1,3.2-2.8A11.5,11.5,0,0,1,276,21a12.9,12.9,0,0,1,6,2.6c1.2,1,3.9,3.5,4.3,4.4s-1.3-1.5-2.8-.8-2,2-5,3.5a9.9,9.9,0,0,1-6.9.7c-.7-.3-1.2-2-2.3-3.1a26,26,0,0,0-3.6-2.7Z" transform="translate(-6.1 -2.3)"/><path class="cls-2" d="M281.1,21.2c-.7-.2,4.8-5,10-4.8s11.8,6.2,11.8,6.2a3.5,3.5,0,0,0-3.1-.7c-2,.4-3.2,2.7-5.5,3.5s-7.1,1.1-7.1,1.1-2.9-4.2-6.1-5.3Z" transform="translate(-6.1 -2.3)"/><polygon class="cls-1" points="59.5 99.9 79.3 99.9 78.9 51.2 79.1 51.2 97.7 99.9 116.3 99.9 135.7 51.2 136 51.2 135.6 99.9 155.5 99.9 155.5 36.4 124.7 36.4 107.8 78.6 107.6 78.6 91.4 36.4 59.5 36.4 59.5 99.9 59.5 99.9"/><path class="cls-1" d="M245,100.6a95.9,95.9,0,0,0,22.7,2.7c16.9,0,33.5-4.5,33.5-20.9,0-22.9-36-16-36-26.3,0-5.5,8.5-5.9,13.6-5.9a47.7,47.7,0,0,1,16.9,2.9L297,40a78.3,78.3,0,0,0-19.6-2.4c-15.3,0-33.2,4.2-33.2,19.5,0,23.1,36,15.6,36,27.5,0,5.1-6.1,6.1-12.5,6.1a52.7,52.7,0,0,1-20.9-4.1l-1.8,14Z" transform="translate(-6.1 -2.3)"/><path class="cls-1" d="M368.5,87.5a64.1,64.1,0,0,1-19,3.2c-14.9,0-25.4-7.5-25.4-20s9.3-20.5,23.7-20.5a46.2,46.2,0,0,1,19.9,4.4l1.6-13.7c-7.3-1.8-14.8-3.3-22.5-3.3-25.1,0-43.7,11-43.7,33.1,0,24,23.5,32.6,43.8,32.6a99.4,99.4,0,0,0,22.6-2.6l-1-13.2Z" transform="translate(-6.1 -2.3)"/><path class="cls-1" d="M241.8,102.2H219.5L200,51.8h-.2s-13.2,8.1-29.4,26.1l17.2-39.2h24.8l29.4,63.5Z" transform="translate(-6.1 -2.3)"/><path class="cls-1" d="M6.1,102.2l4.8-22.9h3.9L14,83.1a21.2,21.2,0,0,1,3.9-3.4,7.8,7.8,0,0,1,3.7-.9,6.1,6.1,0,0,1,3.6,1.1,6.1,6.1,0,0,1,1.9,3.2,11.9,11.9,0,0,1,3.6-3.2,8.7,8.7,0,0,1,4.1-1.1,6.2,6.2,0,0,1,4.3,1.4A5.1,5.1,0,0,1,40.5,84a14.9,14.9,0,0,1-.5,3.5l-3.1,14.7H33l3.2-15.1a11.6,11.6,0,0,0,.4-2.7,2.1,2.1,0,0,0-.7-1.7,2.7,2.7,0,0,0-2-.7,7.2,7.2,0,0,0-3.6,1.1,8.1,8.1,0,0,0-2.8,2.7,22,22,0,0,0-1.7,5.3l-2.4,11.1H19.5l3.3-15.4a14.3,14.3,0,0,0,.3-2.3,2.4,2.4,0,0,0-.7-1.8,2.7,2.7,0,0,0-1.8-.7,7.1,7.1,0,0,0-3.5,1.1A8.1,8.1,0,0,0,14.2,86a17.7,17.7,0,0,0-1.9,5.4L10,102.2Z" transform="translate(-6.1 -2.3)"/><path class="cls-1" d="M41.4,111l.3-3.6a9.1,9.1,0,0,0,2.3.3,3.6,3.6,0,0,0,1.9-.5,11.4,11.4,0,0,0,2.1-2.7l1.2-2.2-3.8-23h3.9L51,90.9l.9,6.8L62.1,79.3h4.1L51.6,105.2a15.1,15.1,0,0,1-3.8,5,5.6,5.6,0,0,1-3.7,1.3A8.6,8.6,0,0,1,41.4,111Z" transform="translate(-6.1 -2.3)"/></svg>