<?xml version="1.0" encoding="utf-8"?>
<!-- Generator: Adobe Illustrator 22.0.1, SVG Export Plug-In . SVG Version: 6.00 Build 0)  -->
<svg version="1.1" id="Layer_1" xmlns="http://www.w3.org/2000/svg" xmlns:xlink="http://www.w3.org/1999/xlink" x="0px" y="0px"
	 viewBox="0 0 1366 768" style="enable-background:new 0 0 1366 768;" xml:space="preserve">
<style type="text/css">
	.st0{fill-rule:evenodd;clip-rule:evenodd;}
</style>
<path d="M703.7,376.1c-15,9.4-24.2,18.9-21.9,23.7c1.6,3.2,8,3.6,17,1.7c-13.1,4-22.9,4.4-24.9,0.3c-2.6-5.4,9.7-17,28.6-27.6
	L703.7,376.1L703.7,376.1z"/>
<path d="M704.7,372.2c0,0-0.4-2.2,0.4-3.1c0.8-1,1.1-1,1.9-1.5c0.9-0.5,1.6-0.5,2.5-1c0.8-0.4,2-1.2,2-1.2s-0.7,1-0.7,1.8
	c0,0.8,0,1.8-0.3,2.6c-0.3,0.6-0.8,1.5-0.8,1.5s-0.8-0.2-1.4-0.2c-0.9,0-1.4,0.1-2.2,0.4C705.4,371.7,704.7,372.2,704.7,372.2
	L704.7,372.2z"/>
<path class="st0" d="M712,369.6c0,0,1-0.2,1.6-0.4c0.7-0.2,1.2-0.5,1.7-0.6c0.5-0.1,1.3,0,1.3,0s0.9-0.9,1-1.7
	c0.2-0.9,0.1-1.1,0.3-2.2c0.2-1.1,0.7-1.9,0.7-1.9s-1,0.8-1.5,1.2c-0.6,0.3-2.4,0.7-3.8,1.7c-0.8,0.7-1.3,1.3-1.4,2.4
	C711.8,368.6,712,369.6,712,369.6L712,369.6z"/>
<path class="st0" d="M719.1,367.5c0,0-0.3-1.9,0.3-3c0.6-1.1,1.2-1.3,2.2-1.7c0.6-0.3,1.8-0.5,2.2-0.7c0.5-0.3,1.1-0.6,1.2-0.9
	c0,0-0.4,1.2-0.6,1.9c-0.2,0.7-0.3,1.9-1.2,3c-0.3,0.3-1.2,0.2-1.9,0.4C720.3,366.8,719.1,367.5,719.1,367.5L719.1,367.5z"/>
<path class="st0" d="M725.8,365.8c0,0-0.4-1.3-0.3-2.1c0.2-0.9,0.6-1.5,1.3-2.1c0.9-0.9,1.7-0.8,3.1-1.4c0.6-0.3,1.7-1.2,1.7-1.2
	c-0.1,0-0.6,1.5-0.7,2.2c-0.1,0.7-0.3,2.6-0.6,2.8c-0.4,0.3-1.6,0.3-2.5,0.7C726.9,364.9,725.8,365.8,725.8,365.8L725.8,365.8z"/>
<path d="M737.7,363c0,0,2.1-1.8,3.7-2.1c1.7-0.3,4.4,0.6,4.4,0.6s-2.4,2.8-4.4,2.9C739.9,364.4,737.7,363,737.7,363L737.7,363z"/>
<path d="M739.1,359.8c-1.2,1-2.9,0-4.8,0.7c-1,0.4-1.2,0.5-1.8,1.1c-0.5,0.5-0.9,1-1,1.6c-0.2,0.8-0.1,1.1,0.2,1.3
	c0.2,0.2,1.1,0.2,1.8,0.9c0.8,0.6,1.3,1.1,2.1,1.3c0.8,0.2,1.5,0.2,2.2,0.1c0.8-0.1,1.6-0.8,2.6-0.4c0.2,0.1-1-1.5-2-2.1
	c-0.9-0.5-2.4-0.8-2.4-0.8s0.6-0.4,1-1c0.3-0.4,0.7-1,0.9-1.4C738.2,360.6,739.1,359.8,739.1,359.8L739.1,359.8z"/>
<path class="st0" d="M704.3,373.7c0.2-1.1,1.4-1.5,2.2-1.7c1.4-0.4,2.5-0.1,3.2,0.1c0.7,0.2,2,0.9,2.6,1.9c0.6,1,0.9,2,0.9,2
	s-0.3-0.6-1.6-0.7c-1.3-0.1-2,0.9-3.5,1.1c-0.9,0.1-2.9-0.2-3.4-0.8C704.3,375.1,704.2,374.4,704.3,373.7L704.3,373.7z"/>
<path class="st0" d="M711.1,371.5c0,0,0.8-0.9,1.5-1.3c1.3-0.8,2.4-1.1,3.9-0.8c1.5,0.3,2.2,0.8,2.7,1.3c0.5,0.5,1.4,1.6,1.4,1.6
	s-0.4-0.6-1.4-0.4c-1,0.2-1.2,1-2.3,1.6c-1.2,0.6-2.7,0.7-3.1,0.6c-0.7-0.1-0.4-0.7-1.1-1.3c-0.7-0.6-1.2-0.6-1.4-0.8
	C711.1,371.8,711.1,371.5,711.1,371.5L711.1,371.5z"/>
<path d="M718.6,369.1c0,0,0.8-0.9,1.4-1.2c0.6-0.4,2-0.9,3.1-0.8c1.1,0.2,2.1,0.7,2.6,1.1c0.5,0.4,1.7,1.5,1.9,1.9
	c0,0.1-0.6-0.6-1.2-0.4c-0.7,0.3-0.9,0.9-2.2,1.6c-1.3,0.7-2.7,0.4-3,0.3c-0.3-0.1-0.6-0.9-1-1.4
	C719.6,369.7,718.6,369.1,718.6,369.1L718.6,369.1z"/>
<path class="st0" d="M725.3,367.2c-0.3-0.1,2.1-2.2,4.4-2.1c2.3,0.1,5.2,2.7,5.2,2.7s-0.5-0.5-1.3-0.3c-0.9,0.2-1.4,1.2-2.4,1.5
	s-3.1,0.5-3.1,0.5S726.7,367.7,725.3,367.2L725.3,367.2z"/>
<polygon points="631,402.6 639.7,402.6 639.5,381.3 639.6,381.3 647.7,402.6 655.9,402.6 664.4,381.3 664.5,381.3 664.3,402.6 
	673,402.6 673,374.8 659.6,374.8 652.2,393.3 652.1,393.3 645,374.8 631,374.8 631,402.6 "/>
<path d="M709.5,401.9c3,0.8,6.8,1.2,9.9,1.2c7.4,0,14.7-2,14.7-9.2c0-10-15.8-7-15.8-11.5c0-2.4,3.7-2.6,6-2.6
	c2.5,0,5.1,0.4,7.4,1.3l0.6-5.7c-2.2-0.6-5.4-1-8.6-1c-6.7,0-14.5,1.8-14.5,8.5c0,10.1,15.8,6.8,15.8,12c0,2.2-2.7,2.7-5.5,2.7
	c-3.7,0-6.9-0.8-9.2-1.8L709.5,401.9L709.5,401.9z"/>
<path d="M763.6,396.2c-2.4,0.8-5.4,1.4-8.3,1.4c-6.5,0-11.1-3.3-11.1-8.8c0-5.2,4.1-9,10.4-9c3.1,0,5.8,0.6,8.7,2l0.7-6
	c-3.2-0.8-6.5-1.4-9.9-1.4c-11,0-19.1,4.8-19.1,14.5c0,10.5,10.3,14.2,19.2,14.2c4.5,0,7.4-0.6,9.9-1.1L763.6,396.2L763.6,396.2z"/>
<path d="M708.1,402.6h-9.7l-8.5-22h-0.1c0,0-5.8,3.5-12.9,11.4l7.5-17.2h10.9L708.1,402.6L708.1,402.6z"/>
<g>
	<path d="M605,402.6l2.1-10h1.7l-0.3,1.6c0.6-0.7,1.2-1.2,1.7-1.5c0.5-0.3,1-0.4,1.6-0.4c0.6,0,1.1,0.2,1.6,0.5
		c0.4,0.3,0.7,0.8,0.8,1.4c0.5-0.6,1-1.1,1.6-1.4c0.6-0.3,1.2-0.5,1.8-0.5c0.8,0,1.5,0.2,1.9,0.6c0.4,0.4,0.6,1,0.6,1.7
		c0,0.3-0.1,0.8-0.2,1.5l-1.3,6.4h-1.7l1.4-6.6c0.1-0.5,0.2-0.9,0.2-1.2c0-0.3-0.1-0.6-0.3-0.8s-0.5-0.3-0.9-0.3
		c-0.5,0-1,0.2-1.6,0.5c-0.5,0.3-0.9,0.7-1.2,1.2c-0.3,0.5-0.5,1.3-0.8,2.3l-1,4.9h-1.7l1.4-6.8c0.1-0.5,0.2-0.8,0.2-1
		c0-0.3-0.1-0.6-0.3-0.8c-0.2-0.2-0.5-0.3-0.8-0.3c-0.5,0-1,0.2-1.5,0.5c-0.5,0.3-1,0.7-1.3,1.3c-0.3,0.5-0.6,1.3-0.8,2.4l-1,4.7
		H605z"/>
	<path d="M620.4,406.5l0.1-1.6c0.4,0.1,0.7,0.2,1,0.2c0.3,0,0.6-0.1,0.8-0.2c0.3-0.2,0.6-0.6,0.9-1.2l0.5-1l-1.7-10h1.7l0.8,5.1
		c0.2,1,0.3,2,0.4,3l4.5-8.1h1.8l-6.4,11.3c-0.6,1.1-1.2,1.8-1.6,2.2c-0.5,0.4-1,0.5-1.6,0.5C621.2,406.7,620.8,406.6,620.4,406.5z"
		/>
</g>
</svg>
